<mxfile host="app.diagrams.net" agent="Mozilla/5.0 (Windows NT 10.0; Win64; x64) AppleWebKit/537.36 (KHTML, like Gecko) Chrome/127.0.0.0 Safari/537.36 OPR/113.0.0.0" version="24.7.16">
  <diagram name="Página-1" id="m7qLtszNLQDTYkaus1c9">
    <mxGraphModel dx="1009" dy="539" grid="1" gridSize="10" guides="1" tooltips="1" connect="1" arrows="1" fold="1" page="1" pageScale="1" pageWidth="827" pageHeight="1169" math="0" shadow="0">
      <root>
        <mxCell id="0" />
        <mxCell id="1" parent="0" />
        <mxCell id="My4qCZeeIvshzQ6Hm4J8-1" value="RF - 8 Enviar Foto das Provas dos Alunos" style="swimlane;fontStyle=0;childLayout=stackLayout;horizontal=1;startSize=30;horizontalStack=0;resizeParent=1;resizeParentMax=0;resizeLast=0;collapsible=1;marginBottom=0;whiteSpace=wrap;html=1;" vertex="1" parent="1">
          <mxGeometry x="190" y="140" width="540" height="420" as="geometry" />
        </mxCell>
        <mxCell id="My4qCZeeIvshzQ6Hm4J8-33" style="rounded=0;orthogonalLoop=1;jettySize=auto;html=1;exitX=0.5;exitY=0.5;exitDx=0;exitDy=0;exitPerimeter=0;entryX=0.5;entryY=1;entryDx=0;entryDy=0;endArrow=none;endFill=0;" edge="1" parent="1" source="My4qCZeeIvshzQ6Hm4J8-5" target="My4qCZeeIvshzQ6Hm4J8-6">
          <mxGeometry relative="1" as="geometry" />
        </mxCell>
        <mxCell id="My4qCZeeIvshzQ6Hm4J8-34" style="rounded=0;orthogonalLoop=1;jettySize=auto;html=1;exitX=0.5;exitY=0.5;exitDx=0;exitDy=0;exitPerimeter=0;entryX=0.5;entryY=1;entryDx=0;entryDy=0;endArrow=none;endFill=0;" edge="1" parent="1" source="My4qCZeeIvshzQ6Hm4J8-5" target="My4qCZeeIvshzQ6Hm4J8-9">
          <mxGeometry relative="1" as="geometry" />
        </mxCell>
        <mxCell id="My4qCZeeIvshzQ6Hm4J8-5" value="Professor" style="shape=umlActor;verticalLabelPosition=bottom;verticalAlign=top;html=1;outlineConnect=0;" vertex="1" parent="1">
          <mxGeometry x="110" y="295" width="30" height="60" as="geometry" />
        </mxCell>
        <mxCell id="My4qCZeeIvshzQ6Hm4J8-11" style="edgeStyle=orthogonalEdgeStyle;rounded=0;orthogonalLoop=1;jettySize=auto;html=1;exitX=1;exitY=0.5;exitDx=0;exitDy=0;dashed=1;dashPattern=8 8;" edge="1" parent="1" source="My4qCZeeIvshzQ6Hm4J8-6" target="My4qCZeeIvshzQ6Hm4J8-9">
          <mxGeometry relative="1" as="geometry" />
        </mxCell>
        <mxCell id="My4qCZeeIvshzQ6Hm4J8-12" value="" style="group" vertex="1" connectable="0" parent="1">
          <mxGeometry x="260" y="190" width="120" height="80" as="geometry" />
        </mxCell>
        <mxCell id="My4qCZeeIvshzQ6Hm4J8-6" value="" style="ellipse;whiteSpace=wrap;html=1;" vertex="1" parent="My4qCZeeIvshzQ6Hm4J8-12">
          <mxGeometry width="120" height="80" as="geometry" />
        </mxCell>
        <mxCell id="My4qCZeeIvshzQ6Hm4J8-8" value="Enviar fotos" style="text;html=1;align=center;verticalAlign=middle;whiteSpace=wrap;rounded=0;" vertex="1" parent="My4qCZeeIvshzQ6Hm4J8-12">
          <mxGeometry x="30" y="25" width="60" height="30" as="geometry" />
        </mxCell>
        <mxCell id="My4qCZeeIvshzQ6Hm4J8-13" value="" style="group" vertex="1" connectable="0" parent="1">
          <mxGeometry x="540" y="190" width="120" height="80" as="geometry" />
        </mxCell>
        <mxCell id="My4qCZeeIvshzQ6Hm4J8-9" value="" style="ellipse;whiteSpace=wrap;html=1;" vertex="1" parent="My4qCZeeIvshzQ6Hm4J8-13">
          <mxGeometry width="120" height="80" as="geometry" />
        </mxCell>
        <mxCell id="My4qCZeeIvshzQ6Hm4J8-10" value="Verificar se as fotos não apresentam erros" style="text;html=1;align=center;verticalAlign=middle;whiteSpace=wrap;rounded=0;" vertex="1" parent="My4qCZeeIvshzQ6Hm4J8-13">
          <mxGeometry x="5" y="30" width="110" height="25" as="geometry" />
        </mxCell>
        <mxCell id="My4qCZeeIvshzQ6Hm4J8-14" value="&amp;lt;Include&amp;gt;" style="text;html=1;align=center;verticalAlign=middle;whiteSpace=wrap;rounded=0;" vertex="1" parent="1">
          <mxGeometry x="430" y="190" width="60" height="30" as="geometry" />
        </mxCell>
        <mxCell id="My4qCZeeIvshzQ6Hm4J8-25" style="edgeStyle=orthogonalEdgeStyle;rounded=0;orthogonalLoop=1;jettySize=auto;html=1;exitX=0;exitY=0.5;exitDx=0;exitDy=0;entryX=1;entryY=0.5;entryDx=0;entryDy=0;dashed=1;dashPattern=8 8;" edge="1" parent="1" source="My4qCZeeIvshzQ6Hm4J8-16" target="My4qCZeeIvshzQ6Hm4J8-17">
          <mxGeometry relative="1" as="geometry">
            <mxPoint x="460" y="410" as="targetPoint" />
          </mxGeometry>
        </mxCell>
        <mxCell id="My4qCZeeIvshzQ6Hm4J8-16" value="" style="ellipse;whiteSpace=wrap;html=1;" vertex="1" parent="1">
          <mxGeometry x="530" y="440" width="120" height="80" as="geometry" />
        </mxCell>
        <mxCell id="My4qCZeeIvshzQ6Hm4J8-24" style="edgeStyle=orthogonalEdgeStyle;rounded=0;orthogonalLoop=1;jettySize=auto;html=1;exitX=0;exitY=0.5;exitDx=0;exitDy=0;entryX=1;entryY=0.5;entryDx=0;entryDy=0;dashed=1;dashPattern=8 8;" edge="1" parent="1" source="My4qCZeeIvshzQ6Hm4J8-18" target="My4qCZeeIvshzQ6Hm4J8-17">
          <mxGeometry relative="1" as="geometry">
            <mxPoint x="460" y="420" as="targetPoint" />
          </mxGeometry>
        </mxCell>
        <mxCell id="My4qCZeeIvshzQ6Hm4J8-18" value="" style="ellipse;whiteSpace=wrap;html=1;" vertex="1" parent="1">
          <mxGeometry x="530" y="310" width="120" height="80" as="geometry" />
        </mxCell>
        <mxCell id="My4qCZeeIvshzQ6Hm4J8-27" value="&amp;lt;Extends&amp;gt;" style="text;html=1;align=center;verticalAlign=middle;whiteSpace=wrap;rounded=0;" vertex="1" parent="1">
          <mxGeometry x="460" y="310" width="60" height="30" as="geometry" />
        </mxCell>
        <mxCell id="My4qCZeeIvshzQ6Hm4J8-28" value="&amp;lt;Extends&amp;gt;" style="text;html=1;align=center;verticalAlign=middle;whiteSpace=wrap;rounded=0;" vertex="1" parent="1">
          <mxGeometry x="460" y="490" width="60" height="30" as="geometry" />
        </mxCell>
        <mxCell id="My4qCZeeIvshzQ6Hm4J8-29" value="" style="group" vertex="1" connectable="0" parent="1">
          <mxGeometry x="260" y="370" width="120" height="80" as="geometry" />
        </mxCell>
        <mxCell id="My4qCZeeIvshzQ6Hm4J8-17" value="" style="ellipse;whiteSpace=wrap;html=1;" vertex="1" parent="My4qCZeeIvshzQ6Hm4J8-29">
          <mxGeometry width="120" height="80" as="geometry" />
        </mxCell>
        <mxCell id="My4qCZeeIvshzQ6Hm4J8-26" value="Mostrar arquivos das provas inserida&lt;span style=&quot;background-color: initial;&quot;&gt;s&lt;/span&gt;" style="text;html=1;align=center;verticalAlign=middle;whiteSpace=wrap;rounded=0;" vertex="1" parent="My4qCZeeIvshzQ6Hm4J8-29">
          <mxGeometry x="15" y="20" width="90" height="35" as="geometry" />
        </mxCell>
        <mxCell id="My4qCZeeIvshzQ6Hm4J8-30" value="Notificar Falha" style="text;html=1;align=center;verticalAlign=middle;whiteSpace=wrap;rounded=0;" vertex="1" parent="1">
          <mxGeometry x="560" y="465" width="60" height="30" as="geometry" />
        </mxCell>
        <mxCell id="My4qCZeeIvshzQ6Hm4J8-31" value="Notificar Sucesso" style="text;html=1;align=center;verticalAlign=middle;whiteSpace=wrap;rounded=0;" vertex="1" parent="1">
          <mxGeometry x="560" y="335" width="60" height="30" as="geometry" />
        </mxCell>
      </root>
    </mxGraphModel>
  </diagram>
</mxfile>
